<svg xmlns="http://www.w3.org/2000/svg" width="180" height="152" viewBox="0 0 180 152">
  <path fill="#00A94F" d="M57.44 35.15a21.9 21.9 0 015.38-2.13 23.32 23.32 0 0113.78.7c.68.27 1.34.57 1.97.9l10.04-6.99a6 6 0 01-.97-1.7 3.63 3.63 0 01-.19-1.11 3.1 3.1 0 01.2-1.02c.06-.15.13-.3.22-.45l-11.16-7.39a11.02 11.02 0 01-1.58.27 12.55 12.55 0 01-1.37.1 19.4 19.4 0 01-6.67-1l-.16-.06A69.08 69.08 0 0051.69 38.4l.44 1.03.1-.12c1.38-1.6 3.13-3.01 5.2-4.16zM69.27 13.18a9.76 9.76 0 002.12.47l.45.04a11.23 11.23 0 001.9-.05 8.22 8.22 0 001.06-.22l.47-.16c.52-.21.9-.48 1.16-.78.25-.3.37-.62.36-.96 0-.33-.13-.68-.38-1.01a3.92 3.92 0 00-1.09-.98 7.15 7.15 0 00-1.17-.58 69.95 69.95 0 00-5 4.18c.05.01.08.03.12.05zM123.36 40.53a6.86 6.86 0 00-1.52-.16 4.54 4.54 0 00-1.79.4 2.82 2.82 0 00-.77.58c-.11.12-.21.25-.3.39-.3.5-.43 1.08-.4 1.72.02.65.22 1.36.56 2.08.34.74.84 1.48 1.47 2.2.52.58 1.13 1.14 1.8 1.65a68.28 68.28 0 004.15-7.53 11.4 11.4 0 00-1.56-.8 9.4 9.4 0 00-1.64-.53zM78.22 8.48c.76.47 1.36.96 1.82 1.47.46.52.77 1.05.92 1.58.15.54.15 1.07-.03 1.58s-.53 1-1.07 1.44l10.9 7 .17-.04.18-.03.18-.03.18-.02a8.92 8.92 0 012.5.03 11.84 11.84 0 012.57.64l6.9-4.8a9.07 9.07 0 01-1.67-1.65 4.3 4.3 0 01-.78-1.57c-.12-.48-.09-.94.09-1.34.17-.39.49-.73.95-1a3.67 3.67 0 011.06-.41 6.54 6.54 0 011.8-.2 10.66 10.66 0 011.65.12 15.63 15.63 0 012.8.67C103.57 6.92 96.96 2.85 89.8 0a68.32 68.32 0 00-13.62 7.47h.03c.72.3 1.4.63 2.02 1.01zM115.7 19.95a4.7 4.7 0 01-1.81.6 8.78 8.78 0 01-2.37.01 14.57 14.57 0 01-3.5-.81c-.4-.14-.78-.3-1.16-.46l-6.58 5.16c.33.33.6.67.83 1.01.23.35.4.7.53 1.05.13.36.2.71.21 1.06.02.35-.03.7-.14 1.02l13.73 8.82a5.23 5.23 0 011.65-.74c.73-.21 1.54-.31 2.4-.31.85 0 1.76.1 2.7.31.93.2 1.9.51 2.88.92.9.38 1.83.84 2.76 1.4l.36-.9a68.73 68.73 0 00-11.69-19.01c-.1.19-.21.38-.39.54-.12.12-.26.23-.41.33zM76.68 39.3a10.5 10.5 0 00-3.24-1.75 12.77 12.77 0 00-3.86-.7 14.11 14.11 0 00-7.83 2 10.87 10.87 0 00-3 2.69 8.45 8.45 0 00-1.56 3.36 7.26 7.26 0 00.16 3.65 8 8 0 002.17 3.41c.78.74 1.68 1.34 2.67 1.81 1 .48 2.07.81 3.19 1.01a14.16 14.16 0 0010.37-2.22c.36-.25.7-.52 1.02-.81a9.47 9.47 0 002.4-3.23 7.3 7.3 0 00-.22-6.55 8.6 8.6 0 00-2.27-2.67z"/>
  <path fill="#00A94F" d="M117.15 50.31a18.3 18.3 0 01-2.58-3.62 11.96 11.96 0 01-1.24-3.47 6.87 6.87 0 01.07-2.99l-14.23-9.4a4.47 4.47 0 01-.76.2 7.34 7.34 0 01-1.69.15 10.66 10.66 0 01-3.2-.48l-.84-.3-9.66 7.6a13.24 13.24 0 012.54 3.94c.6 1.46.92 3 .93 4.58 0 1.63-.31 3.3-.99 4.95-.7 1.7-1.8 3.38-3.3 4.93a18.6 18.6 0 01-3.47 2.79 20.85 20.85 0 01-4.2 2.05 23.78 23.78 0 01-5.83 1.3l-.39.03A68.97 68.97 0 0090.1 76.5 69.5 69.5 0 00120 52.95a22.15 22.15 0 01-2.85-2.64zM105.5 16.04a6.98 6.98 0 002.16 1.4 9.32 9.32 0 002.92.75 6.07 6.07 0 001.28-.08 2.6 2.6 0 00.62-.22c.08-.05.16-.1.23-.17.25-.2.37-.47.38-.75a1.7 1.7 0 00-.27-.92 4.09 4.09 0 00-.84-.95 7.34 7.34 0 00-2.06-1.27 10.1 10.1 0 00-2.36-.68 7.74 7.74 0 00-.63-.06h-.29a5 5 0 00-.98.13 2.48 2.48 0 00-.56.24c-.28.18-.44.42-.5.68-.06.27-.02.58.14.9.15.32.4.66.76 1zM98.41 25.17a5.45 5.45 0 00-1.21-1.02 6.97 6.97 0 00-2.26-.94 7.12 7.12 0 00-2.27-.13 4.65 4.65 0 00-1.18.34c-.12.06-.23.12-.34.2-.17.11-.32.24-.45.39a1.75 1.75 0 00-.44 1c-.02.19 0 .38.03.59a3.46 3.46 0 00.58 1.21 4.47 4.47 0 001.22 1.1 6.9 6.9 0 002.57 1.07 7 7 0 001.99.1 4.64 4.64 0 001.16-.3 2.77 2.77 0 00.67-.4c.33-.27.54-.6.64-.96.1-.35.07-.73-.05-1.11a3.3 3.3 0 00-.66-1.14z"/>
  <path fill="#FFF" d="M120.6 47.73a9.45 9.45 0 01-1.46-2.19 5.56 5.56 0 01-.57-2.08 3 3 0 01.4-1.72 2.62 2.62 0 011.08-.97 4.54 4.54 0 011.8-.4c.47 0 .98.05 1.51.16s1.08.29 1.64.52c.51.22 1.04.49 1.55.8.45-.94.87-1.9 1.27-2.87a21.32 21.32 0 00-2.75-1.4c-.99-.4-1.95-.7-2.89-.9a12.8 12.8 0 00-2.7-.32 8.72 8.72 0 00-2.83.45 6.94 6.94 0 00-1.21.6l-13.73-8.82c.11-.33.15-.67.14-1.02a3.6 3.6 0 00-.21-1.06c-.13-.35-.3-.7-.53-1.05a6.7 6.7 0 00-.83-1.01l6.58-5.16a17.86 17.86 0 003.51 1.1 14.64 14.64 0 002.4.24 8.9 8.9 0 001.81-.21 4.6 4.6 0 001.12-.47c.15-.1.3-.2.41-.33.18-.17.3-.35.4-.54a70.28 70.28 0 00-7.16-7.16 15.7 15.7 0 00-4.46-.8 7.5 7.5 0 00-2.36.39c-.18.06-.35.14-.5.23-.46.27-.78.61-.96 1-.17.4-.2.85-.09 1.34.12.5.39 1.03.8 1.57.4.55.96 1.1 1.66 1.65l-6.9 4.8a11.7 11.7 0 00-3.84-.74 9.1 9.1 0 00-1.41.09l-.18.03-.18.03-.18.04-10.9-7c.55-.44.9-.93 1.08-1.45.18-.5.18-1.04.03-1.57a4.1 4.1 0 00-.92-1.58c-.46-.5-1.06-1-1.82-1.47-.62-.38-1.3-.71-2.02-1l-.04-.01c-.68.48-1.35.97-2.01 1.48l.04.01c.4.17.79.36 1.13.57.48.31.85.64 1.1.98.24.33.37.68.37 1.01 0 .34-.11.67-.36.96-.26.3-.64.57-1.16.78a5.39 5.39 0 01-1.54.38 9 9 0 01-1.89.05l-.45-.04a10.12 10.12 0 01-2.12-.47l-.12-.05c-.75.7-1.5 1.41-2.23 2.14l.17.07a18.2 18.2 0 004.97.96 19.39 19.39 0 003.07-.06 14.56 14.56 0 001.58-.27l11.16 7.38a2.71 2.71 0 00-.42 1.47 3.37 3.37 0 00.19 1.12 4.41 4.41 0 00.55 1.13c.12.2.26.38.42.56l-10.04 7a18.35 18.35 0 00-4.08-1.59 21.45 21.45 0 00-4.56-.7 23.2 23.2 0 00-7.1.69 23.3 23.3 0 00-5.4 2.12 19.17 19.17 0 00-5.2 4.16l-.1.12A69.27 69.27 0 0068.3 62.57c.13 0 .26 0 .39-.02a23.76 23.76 0 008-2.24 20.85 20.85 0 003.86-2.43 18.6 18.6 0 001.63-1.48 15.59 15.59 0 003.3-4.93 12.16 12.16 0 00.06-9.53A13.24 13.24 0 0083.03 38l9.66-7.58a12.55 12.55 0 002.56.67 10.49 10.49 0 003.17-.05 5.7 5.7 0 00.58-.15l.18-.05 14.23 9.4c-.25.9-.27 1.92-.08 3 .2 1.1.62 2.27 1.25 3.46a18.32 18.32 0 002.58 3.63 22.2 22.2 0 002.85 2.64 69.9 69.9 0 002.42-3.57 12.3 12.3 0 01-1.81-1.66zm-16-33.59c.06-.27.22-.5.5-.68a1.72 1.72 0 01.56-.24 3.11 3.11 0 01.98-.13 5.73 5.73 0 01.92.06 8.28 8.28 0 012.36.67l.76.38c.5.28.94.58 1.3.9.37.31.65.64.84.95.19.32.28.63.27.92-.01.28-.13.54-.38.75a1.5 1.5 0 01-.52.3 2.49 2.49 0 01-.7.16 4.23 4.23 0 01-.91.01 7.14 7.14 0 01-1.2-.18 9.15 9.15 0 01-3.88-1.97c-.35-.34-.6-.68-.76-1-.16-.32-.2-.63-.14-.9zM79.17 48.52a9.48 9.48 0 01-2.4 3.23 11.45 11.45 0 01-3.35 2.1 14.42 14.42 0 01-8.04.92c-1.12-.19-2.2-.52-3.19-1-.99-.47-1.9-1.07-2.66-1.8a7.97 7.97 0 01-2.17-3.42 7.26 7.26 0 01-.17-3.65 8.45 8.45 0 011.56-3.36 10.92 10.92 0 014.06-3.28 13.03 13.03 0 013.4-1.15 15.28 15.28 0 013.37-.27 13.93 13.93 0 013.86.71 11.5 11.5 0 013.24 1.75 8.61 8.61 0 012.27 2.67 7.32 7.32 0 01.22 6.55zm19.95-21.1c-.1.36-.3.69-.64.96a2.74 2.74 0 01-1.07.55 3.57 3.57 0 01-.76.16 5.47 5.47 0 01-1.07.01 6.84 6.84 0 01-2.69-.73 7.2 7.2 0 01-1.48-.99 4.47 4.47 0 01-.9-1.18 2 2 0 01-.24-1.2 1.77 1.77 0 01.43-1 2.3 2.3 0 01.79-.58 3.39 3.39 0 01.76-.26 5.03 5.03 0 011.53-.12 7.12 7.12 0 014.63 2.13c.32.37.54.75.66 1.13.12.39.15.77.05 1.12z"/>
  <path fill="#231F20" d="M96.27 93.33v17.72a4 4 0 01-4.21 4.17c-.42 0-.88-.1-1.38-.3a5.3 5.3 0 01-2.5-2.23 3.22 3.22 0 01-.41-1.64V93.33h-7.69v17.72c0 1.24-.37 2.23-1.13 3.01a4 4 0 01-4.4.85 4.96 4.96 0 01-2.45-2.21c-.27-.5-.4-1.03-.4-1.65V93.33h-7.78l-.03 5.82v11.98c.26 1.7.75 3.3 1.46 4.74a13.9 13.9 0 002.67 3.74 11.87 11.87 0 003.6 2.46c1.34.58 2.78.87 4.3.87 1.92 0 3.65-.29 5.13-.87a8.5 8.5 0 003.43-2.51c.92 1.16 2 2 3.22 2.5 1.4.59 2.86.88 4.36.88 1.48 0 2.91-.3 4.25-.87a12.4 12.4 0 003.57-2.37 13.6 13.6 0 004.07-7.67l.01-.04V93.33h-7.69zm-32.38 4.69v.03-.03zm52.34 24.92h-7.7v-29.6h7.7v29.6zm-3.85-32.52a4.83 4.83 0 11.01-9.67 4.83 4.83 0 01-.01 9.67zM58.8 102.15a14.77 14.77 0 00-19.33-7.88 14.96 14.96 0 00-7.87 7.88 14.46 14.46 0 00-1.17 5.75 14.7 14.7 0 009.04 13.58c1.75.76 3.62 1.15 5.58 1.17h14.91V107.9c0-2.02-.39-3.95-1.16-5.75zm-6.58 12.77h-7a6.84 6.84 0 01-4.96-2.06 7.09 7.09 0 01-1.51-7.71 7.08 7.08 0 016.47-4.3 6.85 6.85 0 014.96 2.05 7.13 7.13 0 012.04 4.52v.04a7.94 7.94 0 010 .88v6.58zm96.05-12.52a14.74 14.74 0 00-27.2 0c-.78 1.8-1.17 3.73-1.17 5.75s.4 3.96 1.16 5.75a14.72 14.72 0 0013.46 9h14.91v-14.75c0-2.01-.39-3.95-1.16-5.75zm-6.58 12.77h-7a6.84 6.84 0 01-4.97-2.05 7.12 7.12 0 01-2.05-4.97 7 7 0 017.02-7.06 6.84 6.84 0 014.96 2.06 7.1 7.1 0 012.04 4.52v.05a7.07 7.07 0 010 .87v6.58zM.2 142.9c.78-.25 1.77-.37 2.96-.37.75 0 1.28.25 1.58.75.17.29.26.64.26 1.07v4.4h-.8l-.26-.72a6.78 6.78 0 01-1.31.59c-.39.13-.73.2-1.03.2a1.6 1.6 0 01-1.16-.43c-.3-.29-.44-.66-.44-1.13v-.67c0-.47.14-.84.42-1.13.28-.29.67-.43 1.18-.43h2.34a15.2 15.2 0 000-.77c0-.07-.01-.15-.04-.25a.77.77 0 00-.11-.26.52.52 0 00-.2-.16 1.01 1.01 0 00-.56-.11c-.62 0-1.57.04-2.83.12v-.7zm.86 4.25c0 .46.21.7.65.7.26 0 .57-.05.94-.15s.68-.19.92-.28l.37-.14v-1.5l-2.25.17c-.42.04-.63.27-.63.71v.5zM6.08 146.83v-4.19h1.06v4.2c0 .35.08.6.25.78s.42.25.76.25c.33 0 .63-.05.9-.13s.6-.26 1.06-.5v-4.6h1.06v6.1h-.8l-.26-.69-.27.16a3.3 3.3 0 01-.3.17l-.27.14a2.1 2.1 0 01-.3.14l-.3.1c-.21.06-.46.09-.73.09-.6 0-1.07-.2-1.39-.58a2.2 2.2 0 01-.47-1.44zM13.85 142.58a21.63 21.63 0 013.03.22v.76h-2.93c-.3 0-.47.05-.55.14s-.12.24-.12.46v.46c0 .27.07.44.2.5.1.06.26.08.47.08h1.71c.34 0 .63.07.86.21.45.25.67.69.67 1.31v.57c0 1-.5 1.51-1.5 1.51a26.04 26.04 0 01-3.21-.25v-.74h3.08c.38 0 .57-.18.57-.55v-.48c0-.25-.07-.42-.21-.5a.8.8 0 00-.36-.08h-1.71c-.56 0-.97-.1-1.23-.33s-.4-.63-.4-1.2v-.53c0-.5.13-.89.38-1.15.24-.27.66-.4 1.25-.4zM19.75 140.93v1.7h1.67v.95h-1.67v2.9c0 .46.05.78.16.95.1.18.25.3.46.35.58.16.9.24.96.24v.71H20.2c-1.01 0-1.52-.72-1.52-2.17v-2.98H17.6v-.71l1.1-.24.22-1.7h.83zM24.16 142.96c.16-.08.36-.17.62-.26.27-.08.56-.13.9-.13.34 0 .57.03.7.1v1.03a4.96 4.96 0 00-1.9.08c-.29.1-.63.27-1.04.53v4.43h-1.06v-6.1h.8l.26.77.26-.17.46-.28zM27.22 142.9c.78-.25 1.77-.37 2.97-.37.75 0 1.27.25 1.58.75.17.29.25.64.25 1.07v4.4h-.8l-.25-.72a6.73 6.73 0 01-1.31.59c-.4.13-.74.2-1.04.2-.47 0-.86-.15-1.15-.43s-.44-.66-.44-1.13v-.67c0-.46.14-.84.41-1.13.28-.29.68-.43 1.18-.43h2.35a18.7 18.7 0 000-.77c0-.07-.02-.15-.04-.25a.77.77 0 00-.12-.26.52.52 0 00-.19-.16 1.01 1.01 0 00-.56-.11c-.63 0-1.57.04-2.84.13v-.72zm.86 4.25c0 .46.22.7.66.7.25 0 .56-.05.93-.15s.68-.19.93-.28l.37-.14v-1.5l-2.25.17c-.43.04-.64.27-.64.71v.5zM33.2 146.57v-6.83h1.06v6.76c0 .45.06.77.16.94.1.18.26.3.47.35.58.16.9.24.95.24v.71h-1.1c-1.02 0-1.53-.72-1.53-2.17zM36.59 141.67v-.72c0-.2.09-.3.27-.3h.75c.08 0 .15.03.2.09.04.05.06.13.06.21v.72c0 .18-.08.27-.26.27h-.75a.27.27 0 01-.2-.08.26.26 0 01-.07-.19zm.09 7.07v-6.1h1.05v6.1h-1.05zM39.02 142.9c.78-.25 1.77-.37 2.97-.37.75 0 1.28.25 1.58.75.17.29.25.64.25 1.07v4.4h-.8l-.25-.72a6.78 6.78 0 01-1.31.59c-.4.13-.74.2-1.04.2-.47 0-.86-.15-1.15-.43s-.44-.66-.44-1.13v-.67c0-.46.14-.84.42-1.13.27-.29.67-.43 1.17-.43h2.35a17.79 17.79 0 000-.77c0-.07-.02-.15-.04-.25a.77.77 0 00-.12-.26.52.52 0 00-.19-.16 1.01 1.01 0 00-.56-.11c-.63 0-1.57.04-2.84.13v-.72zm.86 4.25c0 .46.22.7.66.7.25 0 .56-.05.94-.15s.68-.19.92-.28l.37-.14v-1.5l-2.25.17c-.42.04-.64.27-.64.71v.5zM45 148.74v-6.1h.8l.27.7a22.45 22.45 0 01.78-.46l.2-.1.2-.08.22-.07.25-.05c.2-.03.37-.04.52-.04.6 0 1.05.19 1.37.58.33.38.49.86.49 1.41v4.21h-1.06v-4.2c0-.51-.19-.83-.56-.97a2.35 2.35 0 00-1.34.07c-.27.1-.62.25-1.07.48v4.62H45zM53.72 142.64h1.14l1.65 4.68 1.45-4.68h1.1l-.56 1.87 1.24 2.8 1.69-4.67h1.14l-2.23 6.1h-1.12L58 145.96l-.92 2.78h-1.16l-2.2-6.1zM63.35 143.67c.1-.23.21-.41.34-.55.13-.15.3-.25.52-.33.37-.13.88-.2 1.54-.2.78 0 1.31.08 1.58.22.3.16.5.38.61.65.14.33.21.77.21 1.32 0 .96-.54 1.43-1.6 1.43h-2.4c0 .66.07 1.09.24 1.3.17.22.49.33.95.33 1.26 0 2.16-.05 2.7-.13v.77c-.7.21-1.69.32-2.95.32-.77 0-1.3-.23-1.58-.68a4.43 4.43 0 01-.43-2.25c0-1.05.1-1.78.27-2.2zm3.74 1.08c0-.29-.01-.5-.04-.65a.62.62 0 00-.2-.35.75.75 0 00-.39-.17 13.65 13.65 0 00-1.43 0l-.3.06-.21.13a.48.48 0 00-.18.21l-.1.32c-.07.2-.1.52-.1.98h2.29c.44 0 .66-.17.66-.53zM70.25 139.72V143a5.68 5.68 0 012.13-.45c.26 0 .49.03.68.09s.36.14.5.25.26.23.36.39c.1.16.2.32.25.5s.11.37.15.6c.06.37.1.82.1 1.34 0 2.06-.67 3.1-2 3.1-.35 0-.75-.1-1.19-.26a3.92 3.92 0 01-.97-.48l-.24.66h-.8v-9.02h1.03zm2.05 8.1c.7 0 1.06-.7 1.06-2.11 0-.88-.1-1.47-.28-1.77a.86.86 0 00-.78-.43c-.69 0-1.37.1-2.03.28v3.54c.72.33 1.4.5 2.03.5zM78.35 141.67v-.72c0-.2.1-.3.28-.3h.75c.08 0 .15.03.2.09.04.05.06.13.06.21v.72c0 .18-.09.27-.26.27h-.75a.27.27 0 01-.2-.08.26.26 0 01-.08-.19zm.1 7.07v-6.1h1.05v6.1h-1.05zM80.81 148.74v-6.1h.8l.26.7a22.45 22.45 0 01.78-.46l.2-.1.21-.08.22-.07.24-.05c.2-.03.37-.04.52-.04.6 0 1.06.19 1.38.58.32.38.48.86.48 1.41v4.21h-1.06v-4.2c0-.51-.18-.83-.56-.97a2.35 2.35 0 00-1.34.07c-.26.1-.62.25-1.07.48v4.62h-1.06zM86.86 145.72c0-1.21.18-2.06.55-2.54.32-.42.8-.63 1.45-.63.4 0 .8.05 1.2.15.41.1.72.2.95.3v-3.28h1.04v9.02h-.8l-.24-.66c-.2.15-.53.3-.97.48-.44.17-.84.25-1.18.25-1.34 0-2-1.03-2-3.1zm1.06-.01c0 1.4.35 2.11 1.05 2.11.63 0 1.3-.16 2.04-.5v-3.53a7.61 7.61 0 00-2.04-.28.95.95 0 00-.57.16c-.33.26-.48.93-.48 2.04zM93.22 146.83v-4.19h1.06v4.2c0 .35.09.6.25.78s.43.25.76.25c.34 0 .64-.05.9-.13.26-.1.61-.26 1.07-.5v-4.6h1.05v6.1h-.79l-.26-.69-.28.16-.3.17-.26.14-.3.14-.31.1c-.2.06-.45.09-.73.09-.6 0-1.06-.2-1.38-.58a2.2 2.2 0 01-.48-1.44zM101 142.58a21.57 21.57 0 013.02.22v.76h-2.93c-.29 0-.47.05-.55.14-.08.09-.11.24-.11.46v.46c0 .27.06.44.2.5.1.06.26.08.46.08h1.71c.34 0 .63.07.87.21.44.25.66.69.66 1.31v.57c0 1-.5 1.51-1.49 1.51a25.99 25.99 0 01-3.22-.25v-.74h3.08c.38 0 .58-.18.58-.55v-.48c0-.25-.08-.42-.22-.5a.8.8 0 00-.36-.08H101c-.56 0-.97-.1-1.23-.33s-.4-.63-.4-1.2v-.53c0-.5.13-.89.38-1.15s.66-.4 1.26-.4zM106.9 140.93v1.7h1.66v.95h-1.66v2.9c0 .46.05.78.15.95.1.18.26.3.47.35.58.16.9.24.95.24v.71h-1.11c-1.02 0-1.52-.72-1.52-2.17v-2.98h-1.1v-.71l1.1-.24.23-1.7h.83zM111.31 142.96c.15-.08.36-.17.62-.26.26-.08.56-.13.9-.13s.57.03.7.1v1.03a4.95 4.95 0 00-1.9.08c-.3.1-.64.27-1.05.53v4.43h-1.05v-6.1h.8l.26.77.26-.17c.16-.1.3-.2.46-.28zM113.98 142.64h1.13l1.36 4.63c.11.38.35.53.7.46l.02-.01 1.61-5.08h1.15l-2.54 8.03-.85 1.17h-.7l1.02-3.1c-.73 0-1.23-.45-1.5-1.34l-1.4-4.76zM123.67 142.9c.78-.25 1.77-.37 2.97-.37.75 0 1.28.25 1.58.75.17.29.26.64.26 1.07v4.4h-.8l-.26-.72a6.73 6.73 0 01-1.31.59c-.4.13-.74.2-1.04.2-.47 0-.85-.15-1.15-.43s-.44-.66-.44-1.13v-.67c0-.46.14-.84.42-1.13s.67-.43 1.18-.43h2.34a15.2 15.2 0 000-.77c0-.07-.01-.15-.04-.25a.77.77 0 00-.11-.26.53.53 0 00-.2-.16 1.01 1.01 0 00-.56-.11c-.62 0-1.57.04-2.84.13v-.72zm.86 4.25c0 .46.22.7.66.7.25 0 .56-.05.94-.15.37-.1.68-.19.92-.28l.37-.14v-1.5l-2.25.17c-.42.04-.63.27-.63.71v.5zM131.07 142.58a21.6 21.6 0 013.03.22v.76h-2.94c-.29 0-.47.05-.55.14-.07.09-.11.24-.11.46v.46c0 .27.06.44.2.5.1.06.26.08.46.08h1.72c.33 0 .62.07.86.21.44.25.66.69.66 1.31v.57c0 1-.5 1.51-1.49 1.51a25.99 25.99 0 01-3.22-.25v-.74h3.08c.39 0 .58-.18.58-.55v-.48c0-.25-.08-.42-.22-.5a.8.8 0 00-.36-.08h-1.71c-.56 0-.97-.1-1.23-.33s-.4-.63-.4-1.2v-.53c0-.5.13-.89.38-1.15.25-.27.66-.4 1.26-.4zM136.77 142.58a21.64 21.64 0 013.02.22v.76h-2.93c-.29 0-.47.05-.55.14s-.11.24-.11.46v.46c0 .27.06.44.2.5.1.06.26.08.46.08h1.72c.33 0 .62.07.86.21.44.25.66.69.66 1.31v.57c0 1-.5 1.51-1.49 1.51a26.01 26.01 0 01-3.22-.25v-.74h3.08c.39 0 .58-.18.58-.55v-.48c0-.25-.08-.42-.22-.5a.8.8 0 00-.36-.08h-1.71c-.56 0-.97-.1-1.23-.33s-.39-.63-.39-1.2v-.53c0-.5.12-.89.37-1.15s.66-.4 1.26-.4zM141.07 145.78c0-.84.09-1.49.27-1.95.17-.46.45-.78.83-.97.39-.19.92-.28 1.61-.28 1.04 0 1.75.23 2.13.7.39.45.58 1.27.58 2.44s-.19 1.99-.58 2.42-1.1.66-2.12.66-1.73-.23-2.13-.68c-.4-.45-.59-1.23-.59-2.34zm1.22-1.5c-.06.17-.1.38-.13.62a9.57 9.57 0 000 1.7c.03.22.08.41.15.56s.15.27.23.36c.08.08.19.15.34.2.22.07.49.11.81.1.32 0 .56-.01.71-.03.16-.02.3-.06.46-.14s.26-.18.34-.34c.16-.33.24-.84.24-1.54 0-.7-.04-1.17-.13-1.4a2.02 2.02 0 00-.23-.47.71.71 0 00-.32-.23 2.26 2.26 0 00-.82-.12c-.33 0-.56 0-.7.02s-.27.05-.42.1c-.14.05-.25.12-.32.22s-.14.22-.2.4zM147.55 147.02c-.07-.38-.1-.82-.1-1.34 0-.5.03-.95.1-1.32.06-.37.15-.67.26-.9.11-.22.25-.4.43-.54.3-.23.71-.34 1.22-.34a10.9 10.9 0 012.67.33v.7c-.98-.04-1.68-.06-2.1-.06s-.69 0-.78.03a.8.8 0 00-.3.14c-.11.08-.2.2-.25.35-.13.36-.2.87-.2 1.52s.04 1.14.12 1.45c.08.3.2.5.35.62.16.1.4.16.7.16.61 0 1.32-.02 2.13-.08l.4-.03v.75a6.4 6.4 0 01-1.79.32 6.9 6.9 0 01-1.54-.03 1.72 1.72 0 01-.61-.29 1.46 1.46 0 01-.44-.54c-.11-.23-.2-.53-.27-.9zM153.17 141.67v-.72c0-.2.1-.3.28-.3h.74c.09 0 .15.03.2.09.04.05.07.13.07.21v.72c0 .18-.1.27-.27.27h-.74a.26.26 0 01-.2-.08.26.26 0 01-.08-.19zm.1 7.07v-6.1h1.05v6.1h-1.06zM155.6 142.9a10.1 10.1 0 012.97-.37c.75 0 1.28.25 1.59.75.17.29.25.64.25 1.07v4.4h-.8l-.26-.72a6.73 6.73 0 01-1.31.59c-.39.13-.73.2-1.03.2-.48 0-.86-.15-1.16-.43s-.44-.66-.44-1.13v-.67c0-.46.14-.84.42-1.13.28-.29.67-.43 1.18-.43h2.34a15.2 15.2 0 000-.77c0-.07-.01-.15-.04-.25a.77.77 0 00-.11-.26.52.52 0 00-.2-.16 1.01 1.01 0 00-.56-.11c-.62 0-1.57.04-2.83.13v-.72zm.87 4.25c0 .46.22.7.65.7.26 0 .57-.05.94-.15.37-.1.68-.19.92-.28l.37-.14v-1.5l-2.25.17c-.42.04-.63.27-.63.71v.5zM163.31 140.93v1.7h1.67v.95h-1.66v2.9c0 .46.05.78.15.95.1.18.26.3.47.35.58.16.9.24.95.24v.71h-1.11c-1.02 0-1.52-.72-1.52-2.17v-2.98h-1.1v-.71l1.1-.24.23-1.7h.82zM165.84 141.67v-.72c0-.2.1-.3.28-.3h.75c.08 0 .15.03.2.09.04.05.06.13.06.21v.72c0 .18-.09.27-.27.27h-.74a.26.26 0 01-.2-.08.26.26 0 01-.07-.19zm.1 7.07v-6.1h1.05v6.1h-1.05zM168.2 145.78c0-.84.09-1.49.26-1.95s.46-.78.84-.97c.39-.19.92-.28 1.61-.28 1.04 0 1.75.23 2.13.7.39.45.58 1.27.58 2.44s-.19 1.99-.58 2.42c-.38.44-1.1.66-2.12.66s-1.73-.23-2.13-.68c-.4-.45-.59-1.23-.59-2.34zm1.22-1.5c-.06.17-.1.38-.13.62a7.25 7.25 0 000 1.7c.03.22.08.41.15.56s.15.27.23.36c.08.08.19.15.33.2.23.07.5.11.82.1s.56-.01.71-.03c.15-.02.3-.06.46-.14a.73.73 0 00.34-.34c.16-.33.24-.84.24-1.54 0-.7-.05-1.17-.13-1.4a2.02 2.02 0 00-.23-.47.7.7 0 00-.32-.23 2.26 2.26 0 00-.82-.12c-.33 0-.56 0-.7.02s-.28.05-.42.1c-.14.05-.25.12-.32.22s-.14.22-.2.4zM174.8 148.74v-6.1h.79l.26.7.2-.12.2-.12a4.85 4.85 0 00.38-.22l.2-.1c.1-.04.16-.07.22-.08a23.97 23.97 0 01.46-.12c.2-.03.37-.04.51-.04.6 0 1.06.19 1.38.58.32.38.48.86.48 1.41v4.21h-1.05v-4.2c0-.51-.2-.83-.57-.97a2.34 2.34 0 00-1.34.07c-.26.1-.62.25-1.07.48v4.62h-1.06z"/>
</svg>
